<?xml version="1.0" standalone="no"?><!DOCTYPE svg PUBLIC "-//W3C//DTD SVG 1.1//EN" "http://www.w3.org/Graphics/SVG/1.1/DTD/svg11.dtd"><svg class="icon" width="200px" height="200.00px" viewBox="0 0 1024 1024" version="1.1" xmlns="http://www.w3.org/2000/svg"><path fill="#333333" d="M832 497.728V256L576 0H128C92.608 0 64 28.608 64 64v896c0 35.392 28.608 64 64 64h544C831.04 1024 960 895.04 960 736c0-99.648-51.072-186.688-128-238.272zM432.64 896H192V128h320v192h192V451.2c-10.56-1.472-21.056-3.2-32-3.2C512.96 448 384 576.96 384 736c0 59.264 17.984 114.24 48.64 160z m239.36 0c-88.384 0-160-71.616-160-160s71.616-160 160-160 160 71.616 160 160-71.616 160-160 160z m32-192h64v64h-64v64h-64v-64h-64v-64h64v-64h64z" /></svg>