<?xml version="1.0" standalone="no"?><!DOCTYPE svg PUBLIC "-//W3C//DTD SVG 1.1//EN" "http://www.w3.org/Graphics/SVG/1.1/DTD/svg11.dtd"><svg class="icon" width="200px" height="200.00px" viewBox="0 0 1024 1024" version="1.1" xmlns="http://www.w3.org/2000/svg"><path fill="#333333" d="M250.496 160l178.752 178.752a63.936 63.936 0 0 1 0 90.496 63.936 63.936 0 0 1-90.496 0L160 250.496l-50.752 50.752A64.021333 64.021333 0 0 1 0 256V64c0-35.328 28.672-64 64-64h192a64 64 0 0 1 45.248 109.248L250.496 160zM960 0a64 64 0 0 1 64 64v192a64.106667 64.106667 0 0 1-64 64c-16.64 0-33.024-6.528-45.248-18.752L864 250.496l-178.752 178.752a63.936 63.936 0 0 1-90.496 0 63.936 63.936 0 0 1 0-90.496L773.504 160l-50.752-50.752a64.106667 64.106667 0 0 1-13.888-69.76A64.042667 64.042667 0 0 1 768 0h192zM338.752 594.752a63.936 63.936 0 0 1 90.496 0 63.936 63.936 0 0 1 0 90.496L250.496 864l50.752 50.752A64 64 0 0 1 256 1024H64a64 64 0 0 1-64-64v-192a64.042667 64.042667 0 0 1 64-64c16.64 0 33.024 6.528 45.248 18.752L160 773.504l178.752-178.752z m645.76 114.112A64.042667 64.042667 0 0 1 1024 768v192c0 35.392-28.608 64-64 64h-192a64.042667 64.042667 0 0 1-59.136-39.488 64.106667 64.106667 0 0 1 13.888-69.76l50.752-50.752-178.752-178.752a63.936 63.936 0 0 1 0-90.496 63.936 63.936 0 0 1 90.496 0l178.752 178.752 50.752-50.752a64.021333 64.021333 0 0 1 69.76-13.888z" /></svg>