<?xml version="1.0" standalone="no"?><!DOCTYPE svg PUBLIC "-//W3C//DTD SVG 1.1//EN" "http://www.w3.org/Graphics/SVG/1.1/DTD/svg11.dtd"><svg class="icon" width="200px" height="200.00px" viewBox="0 0 1024 1024" version="1.1" xmlns="http://www.w3.org/2000/svg"><path fill="#333333" d="M832 1024H192c-106.048 0-192-86.016-192-192V192a192 192 0 0 1 192-192h640a192 192 0 0 1 192 192v640c0 105.984-85.952 192-192 192z m64-832a64 64 0 0 0-64-64H192a64 64 0 0 0-64 64v640c0 35.392 28.608 64 64 64h640c35.392 0 64-28.608 64-64V192z m-192 512v96a32 32 0 0 1-64 0V704c-35.392 0-64-28.608-64-64v-64a64 64 0 0 1 64-64V224a32 32 0 0 1 64 0V512a64 64 0 0 1 64 64v64c0 35.392-28.608 64-64 64z m-320-192v288a32 32 0 0 1-64 0V512a64 64 0 0 1-64-64v-64a64 64 0 0 1 64-64v-96a32 32 0 0 1 64 0V320a64 64 0 0 1 64 64v64a64 64 0 0 1-64 64z" /></svg>