<?xml version="1.0" standalone="no"?><!DOCTYPE svg PUBLIC "-//W3C//DTD SVG 1.1//EN" "http://www.w3.org/Graphics/SVG/1.1/DTD/svg11.dtd"><svg class="icon" width="200px" height="189.63px" viewBox="0 0 1080 1024" version="1.1" xmlns="http://www.w3.org/2000/svg"><path fill="#333333" d="M1080.832 717.568c-0.064-0.192-0.192-0.32-0.256-0.576l0.384-0.128c-0.064 0.192-0.064 0.512-0.128 0.704zM832 1024H192c-106.048 0-192-86.016-192-192V192a192 192 0 0 1 192-192h320v128H192a64 64 0 0 0-64 64v640c0 35.392 28.608 64 64 64h640c35.392 0 64-28.608 64-64v-170.624l128-106.688V832c0 105.984-85.952 192-192 192z m-192-573.312c-207.104 13.952-375.744 167.104-410.816 367.744A445.610667 445.610667 0 0 1 192 640C192 392.576 392.576 192 640 192V0l384 320-384 320v-189.312z" /></svg>