<?xml version="1.0" standalone="no"?><!DOCTYPE svg PUBLIC "-//W3C//DTD SVG 1.1//EN" "http://www.w3.org/Graphics/SVG/1.1/DTD/svg11.dtd"><svg class="icon" width="200px" height="200.00px" viewBox="0 0 1024 1024" version="1.1" xmlns="http://www.w3.org/2000/svg"><path fill="#333333" d="M512 1024C264.576 1024 64 823.424 64 576c0-178.368 105.024-330.624 256-402.304v147.648C242.56 379.648 192 471.616 192 576c0 176.768 143.232 320 320 320s320-143.232 320-320c0-104.384-50.56-196.352-128-254.656V173.696c150.976 71.744 256 224 256 402.304 0 247.424-200.576 448-448 448z m64-576a64 64 0 1 1-128 0V64a64 64 0 1 1 128 0v384z" /></svg>