<?xml version="1.0" standalone="no"?><!DOCTYPE svg PUBLIC "-//W3C//DTD SVG 1.1//EN" "http://www.w3.org/Graphics/SVG/1.1/DTD/svg11.dtd"><svg class="icon" width="200px" height="200.00px" viewBox="0 0 1024 1024" version="1.1" xmlns="http://www.w3.org/2000/svg"><path fill="#333333" d="M1019.136 423.488A64.042667 64.042667 0 0 0 960 384h-64v-64a192 192 0 0 0-192-192H320c-86.72 0-159.232 57.92-182.976 136.96C154.688 259.648 172.992 256 192 256c29.056 0 56.896 7.104 82.368 19.264A63.765333 63.765333 0 0 1 320 256h384a64 64 0 0 1 64 64v64h-64c-25.856 0-49.28 15.616-59.136 39.488a64.106667 64.106667 0 0 0 13.888 69.76l128 128c12.48 12.48 28.864 18.752 45.248 18.752s32.768-6.272 45.248-18.752l128-128a64 64 0 0 0 13.888-69.76zM749.632 748.736A63.765333 63.765333 0 0 1 704 768H320a64 64 0 0 1-64-64v-64h64a64 64 0 0 0 45.248-109.248l-128-128C224.768 390.272 208.384 384 192 384s-32.768 6.272-45.248 18.752l-128 128a64.106667 64.106667 0 0 0-13.888 69.76A64.042667 64.042667 0 0 0 64 640h64v64a192 192 0 0 0 192 192h384c86.784 0 159.232-57.92 182.976-136.96-17.664 5.312-35.968 8.96-54.976 8.96a189.909333 189.909333 0 0 1-82.368-19.264z" /></svg>