<?xml version="1.0" standalone="no"?><!DOCTYPE svg PUBLIC "-//W3C//DTD SVG 1.1//EN" "http://www.w3.org/Graphics/SVG/1.1/DTD/svg11.dtd"><svg class="icon" width="200px" height="200.00px" viewBox="0 0 1024 1024" version="1.1" xmlns="http://www.w3.org/2000/svg"><path fill="#333333" d="M832 1024H192a192 192 0 0 1-192-192V192a192 192 0 0 1 192-192h640a192 192 0 0 1 192 192v640a192 192 0 0 1-192 192z m64-832c0-35.392-28.608-64-64-64H192C156.608 128 128 156.608 128 192v640c0 35.392 28.608 64 64 64h640c35.392 0 64-28.608 64-64V192zM320 768H192v-64h64v-64c0-35.392 28.608-64 64-64h384c35.392 0 64 28.608 64 64v64h64v64H320z m384-128H320v64h384v-64z m-256-192H192v-64h192v-64c0-35.392 28.608-64 64-64h128c35.392 0 64 28.608 64 64v64h192v64H448z m128-128h-128v64h128v-64z" /></svg>