<?xml version="1.0" standalone="no"?><!DOCTYPE svg PUBLIC "-//W3C//DTD SVG 1.1//EN" "http://www.w3.org/Graphics/SVG/1.1/DTD/svg11.dtd"><svg class="icon" width="200px" height="200.00px" viewBox="0 0 1024 1024" version="1.1" xmlns="http://www.w3.org/2000/svg"><path fill="#333333" d="M832 1024H192a192 192 0 0 1-192-192v-192l220.48-220.48a192.234667 192.234667 0 0 0 27.776 36.16l58.624 58.624L128 704h192v64a64 64 0 0 0 64 64h256c35.392 0 64-28.608 64-64v-64h192l-178.88-189.696 58.624-58.624a194.261333 194.261333 0 0 0 27.84-36.096L1024 640v192a192 192 0 0 1-192 192zM557.248 493.184c-12.48 12.48-28.864 18.752-45.248 18.752s-32.768-6.272-45.248-18.752l-128-128a64.213333 64.213333 0 0 1-13.888-69.76A63.978667 63.978667 0 0 1 384 256h64V64a64.021333 64.021333 0 0 1 128 0v192h64c25.856 0 49.28 15.616 59.136 39.488a64 64 0 0 1-13.888 69.696l-128 128z" /></svg>