<?xml version="1.0" standalone="no"?><!DOCTYPE svg PUBLIC "-//W3C//DTD SVG 1.1//EN" "http://www.w3.org/Graphics/SVG/1.1/DTD/svg11.dtd"><svg class="icon" width="200px" height="200.00px" viewBox="0 0 1024 1024" version="1.1" xmlns="http://www.w3.org/2000/svg"><path fill="#333333" d="M960 576h-128c-35.392 0-64-28.608-64-64a64 64 0 0 1 64-64h128a64 64 0 0 1 64 64c0 35.392-28.608 64-64 64z m-176.512-244.992c-25.024 25.024-65.472 25.024-90.496 0s-25.024-65.472 0-90.496l90.496-90.56a64 64 0 1 1 90.496 90.56l-90.496 90.496zM512 1024a64 64 0 0 1-64-64v-128a64.021333 64.021333 0 0 1 128 0v128c0 35.392-28.608 64-64 64z m0-768a64 64 0 0 1-64-64V64a64.021333 64.021333 0 0 1 128 0v128c0 35.392-28.608 64-64 64zM240.448 874.048c-25.024 25.024-65.472 25.024-90.496 0s-25.024-65.536 0-90.496l90.496-90.56a64 64 0 1 1 90.496 90.56l-90.496 90.496z m0-543.04l-90.496-90.496a64 64 0 1 1 90.496-90.56l90.496 90.56a63.936 63.936 0 0 1 0 90.496 64.042667 64.042667 0 0 1-90.496 0zM256 512a64 64 0 0 1-64 64H64a64 64 0 1 1 0-128h128c35.328 0 64 28.672 64 64z m527.488 180.992l90.496 90.56c25.024 24.96 25.024 65.472 0 90.496s-65.472 25.024-90.496 0l-90.496-90.496a64 64 0 1 1 90.496-90.56z" /></svg>