<?xml version="1.0" standalone="no"?><!DOCTYPE svg PUBLIC "-//W3C//DTD SVG 1.1//EN" "http://www.w3.org/Graphics/SVG/1.1/DTD/svg11.dtd"><svg class="icon" width="200px" height="200.00px" viewBox="0 0 1024 1024" version="1.1" xmlns="http://www.w3.org/2000/svg"><path fill="#333333" d="M967.740774 504.254532l-447.998506-447.998506A191.316696 191.316696 0 0 0 383.99872 0.000213H0v383.99872c0 49.151836 18.751937 98.239673 56.255812 135.743548l447.998507 447.998507a191.892694 191.892694 0 0 0 271.487095 0l191.99936-191.99936a191.892694 191.892694 0 0 0 0-271.487096z m-90.495698 180.991397l-191.99936 191.99936a63.935787 63.935787 0 0 1-90.495699 0l-447.998506-447.998506A63.829121 63.829121 0 0 1 127.999573 383.998933V127.999787h255.999147c16.383945 0 32.767891 6.271979 45.247849 18.751937l447.998507 447.998507a63.935787 63.935787 0 0 1 0 90.495698zM255.999147 191.999573c-35.391882 0-63.999787 28.607905-63.999787 63.999787s28.607905 63.999787 63.999787 63.999787 63.999787-28.607905 63.999786-63.999787-28.607905-63.999787-63.999786-63.999787z" /></svg>